# xmcd
#
# Track frame offsets:
#	150
#	16333
#	31052
#	44978
#	58405
#	81500
#	97762
#	120806
#	135669
#	152421
#	169256
#	183823
#
# Disc length: 2675 seconds
#
# Revision: 1
# Processed by: cddbd v1.5.2PL0 Copyright (c) Steve Scherf et al.
# Submitted via: audiograbber 1.83.01
#
DISCID=920a710c
DTITLE=Sheidi - Arvaa Mitä?
DYEAR=2003
DGENRE=Pop
TTITLE0=Juostaan Pois
TTITLE1=Siistii Ja Sekavaa
TTITLE2=Ketsuppitanssi (Asereje)
TTITLE3=Roistonsydän (Dangerous)
TTITLE4=En Sanonut Niin (From Sarah With Love)
TTITLE5=Be-Bop-A-Lula
TTITLE6=Yö Väistyy (Torn Down)
TTITLE7=Sexi Myy
TTITLE8=Sisko
TTITLE9=Sateen Teet
TTITLE10=Väärä Hälytys (Big Mistake)
TTITLE11=Ajattelen Sua
EXTD=TR.
EXTT0=
EXTT1=
EXTT2=
EXTT3=
EXTT4=
EXTT5=
EXTT6=
EXTT7=
EXTT8=
EXTT9=
EXTT10=
EXTT11=
PLAYORDER=
